<?xml version="1.0" standalone="no"?>
<!DOCTYPE svg PUBLIC "-//W3C//DTD SVG 20010904//EN"
 "http://www.w3.org/TR/2001/REC-SVG-20010904/DTD/svg10.dtd">
<svg version="1.0" xmlns="http://www.w3.org/2000/svg"
 width="512.000000pt" height="512.000000pt" viewBox="0 0 512.000000 512.000000"
 preserveAspectRatio="xMidYMid meet">
<metadata>
Created by potrace 1.14, written by Peter Selinger 2001-2017
</metadata>
<g transform="translate(0.000000,512.000000) scale(0.100000,-0.100000)"
fill="#000000" stroke="none">
<path d="M3818 4935 c-2 -1 -57 -6 -123 -10 -66 -3 -133 -8 -150 -10 -153 -15
-235 -24 -270 -30 -16 -3 -50 -7 -75 -10 -40 -5 -220 -35 -305 -51 -25 -4
-186 -40 -220 -48 -5 -2 -28 -6 -50 -11 -60 -12 -62 -12 -165 -40 -900 -245
-1613 -609 -2049 -1045 -140 -140 -217 -241 -290 -381 -128 -245 -146 -422
-71 -704 34 -131 47 -164 120 -320 226 -487 718 -1059 1260 -1470 394 -298
805 -501 1195 -590 403 -92 760 37 974 353 44 65 101 182 119 243 6 19 49 146
96 283 48 137 85 250 84 252 -2 1 -55 -36 -118 -83 -63 -46 -192 -136 -285
-198 -123 -82 -180 -127 -201 -158 -35 -49 -110 -102 -164 -117 -48 -13 -144
-14 -200 -2 -83 19 -94 22 -160 43 -413 132 -902 482 -1303 932 -354 397 -600
832 -613 1082 -3 60 17 146 41 175 6 8 14 22 17 30 20 55 210 257 343 365 39
31 77 61 85 68 41 33 269 182 364 236 136 79 350 186 491 245 61 26 124 53
140 61 130 60 633 222 775 250 8 2 35 8 60 15 25 7 53 14 62 16 10 2 26 6 36
8 47 11 285 56 347 66 39 6 81 13 95 15 268 42 352 33 413 -47 15 -20 49 -44
79 -58 29 -12 117 -51 195 -86 77 -35 143 -64 145 -64 5 0 1 105 -7 180 -30
285 -210 515 -461 589 -58 17 -244 36 -256 26z"/>
<path d="M1866 4882 c-2 -1 -34 -5 -72 -8 -137 -10 -348 -76 -469 -147 -228
-133 -428 -354 -561 -619 l-45 -89 88 59 c80 53 149 95 273 166 49 28 305 155
414 206 240 111 806 306 979 337 15 3 29 9 32 13 4 6 -112 30 -220 47 -16 2
-55 8 -85 13 -89 15 -326 31 -334 22z"/>
<path d="M3835 4353 c-16 -2 -75 -10 -130 -19 -55 -9 -109 -17 -120 -19 -11
-1 -33 -5 -50 -8 -16 -4 -46 -9 -65 -12 -19 -4 -53 -10 -75 -15 -22 -5 -53
-11 -70 -14 -40 -7 -312 -74 -350 -86 -16 -6 -68 -21 -114 -35 -46 -14 -90
-29 -98 -33 -9 -5 20 -16 79 -29 194 -43 429 -110 718 -204 197 -65 439 -147
465 -159 35 -15 294 -100 307 -100 7 -1 31 -9 53 -20 22 -11 44 -19 48 -20 19
0 153 -95 204 -143 105 -99 195 -236 257 -389 62 -156 73 -340 32 -543 -10
-47 -41 -119 -70 -160 l-21 -30 30 19 c121 77 217 285 240 516 26 266 1 461
-86 664 -130 304 -329 498 -659 644 -331 146 -467 202 -482 201 -7 -1 -26 -4
-43 -6z"/>
<path d="M4096 3543 c-71 -361 -177 -816 -251 -1068 -14 -49 -37 -127 -50
-173 -14 -46 -27 -87 -29 -91 -3 -4 -7 -18 -10 -32 -2 -13 -16 -57 -30 -98
-14 -41 -24 -76 -22 -78 5 -5 193 96 398 214 74 42 78 46 92 96 14 51 90 359
100 408 3 13 7 33 10 44 7 29 84 395 90 430 2 17 7 40 10 51 2 12 7 39 10 60
4 22 13 75 21 118 8 44 14 80 13 81 -17 14 -105 50 -198 79 -63 21 -120 39
-126 42 -7 3 -17 -28 -28 -83z"/>
<path d="M1439 3479 c-63 -45 -116 -84 -119 -88 -3 -3 -27 -24 -55 -45 -140
-110 -320 -326 -345 -414 -43 -155 87 -467 342 -818 79 -110 228 -294 237
-294 3 0 6 93 7 208 0 180 9 478 19 652 1 30 6 118 10 195 4 77 8 160 10 185
2 25 6 137 9 250 3 113 8 215 10 228 3 12 1 22 -3 22 -4 0 -59 -36 -122 -81z"/>
<path d="M4500 3125 c0 -3 6 -20 14 -38 11 -29 37 -123 52 -191 7 -32 7 -227
-1 -266 -20 -113 -66 -209 -130 -273 -33 -33 -106 -80 -210 -136 -16 -9 -31
-19 -33 -23 -2 -5 -8 -8 -13 -8 -5 0 -26 -10 -47 -23 -20 -13 -66 -39 -102
-59 -36 -19 -108 -59 -160 -88 -141 -79 -481 -245 -645 -316 -311 -134 -649
-232 -890 -260 -27 -3 -61 -8 -75 -10 -41 -7 -327 -5 -357 2 -24 6 -22 3 18
-32 59 -53 67 -59 154 -125 193 -147 404 -271 586 -344 115 -47 280 -95 324
-95 65 0 464 251 825 518 126 93 411 316 505 394 306 253 345 293 408 418 21
41 40 84 42 95 31 134 34 159 31 255 -2 58 -7 119 -10 135 -32 151 -113 320
-190 400 -47 48 -96 84 -96 70z"/>
<path d="M337 1820 c-7 -44 -2 -307 7 -340 3 -14 9 -38 11 -55 34 -194 165
-437 318 -589 250 -248 595 -379 1012 -385 67 -1 129 1 138 5 13 5 -16 27
-112 85 -369 226 -803 603 -1086 944 -28 33 -53 62 -56 65 -8 6 -189 247 -210
280 l-16 24 -6 -34z"/>
</g>
</svg>
